<?xml version="1.0" standalone="no"?>
<!DOCTYPE svg PUBLIC "-//W3C//DTD SVG 20010904//EN"
 "http://www.w3.org/TR/2001/REC-SVG-20010904/DTD/svg10.dtd">
<svg version="1.0" xmlns="http://www.w3.org/2000/svg"
 width="1080.000000pt" height="1080.000000pt" viewBox="0 0 1080.000000 1080.000000"
 preserveAspectRatio="xMidYMid meet">
<metadata>
Created by potrace 1.14, written by Peter Selinger 2001-2017
</metadata>
<g transform="translate(0.000000,1080.000000) scale(0.100000,-0.100000)"
fill="#000000" stroke="none">
<path d="M4790 9218 c0 -6 -3 -9 -6 -5 -4 3 -23 -1 -43 -9 -20 -8 -38 -15 -41
-16 -23 -3 -110 -42 -110 -49 0 -4 -13 -12 -30 -19 -16 -7 -30 -17 -30 -22 0
-5 -4 -6 -10 -3 -5 3 -10 1 -10 -4 0 -6 -4 -11 -10 -11 -13 0 -50 -31 -139
-117 -41 -40 -70 -73 -65 -73 5 0 4 -4 -1 -8 -21 -14 -84 -109 -78 -116 3 -3
2 -6 -4 -6 -10 0 -55 -91 -53 -106 1 -3 -7 -12 -17 -20 -10 -7 -14 -14 -9 -14
5 0 3 -7 -4 -15 -7 -8 -10 -15 -6 -15 3 0 -1 -17 -10 -37 -19 -46 -25 -68 -28
-114 -2 -20 -6 -41 -10 -47 -3 -6 -2 -13 4 -17 6 -4 7 -13 2 -23 -9 -19 -8
-54 2 -71 4 -6 2 -11 -4 -11 -8 0 -8 -6 0 -20 6 -11 7 -20 3 -20 -4 0 -9 -71
-10 -158 -4 -388 -10 -609 -16 -619 -6 -9 -205 -112 -227 -118 -3 0 -30 -14
-60 -30 -30 -16 -57 -29 -60 -30 -13 -2 -126 -60 -131 -68 -3 -5 -8 -7 -10 -6
-2 2 -49 -19 -104 -46 -55 -27 -104 -50 -108 -50 -4 0 -12 -7 -17 -15 -5 -8
-10 -12 -10 -8 0 4 -16 -1 -35 -12 -20 -11 -42 -20 -50 -20 -8 0 -15 -4 -15
-10 0 -5 -4 -10 -10 -10 -5 0 -97 -43 -204 -97 -189 -93 -195 -97 -173 -112
12 -8 25 -20 29 -25 4 -6 8 -7 8 -2 0 5 8 2 18 -7 10 -10 22 -14 25 -11 4 4 9
-1 13 -10 3 -9 12 -16 19 -16 7 0 29 -11 49 -25 20 -13 36 -22 36 -19 0 3 7
-1 15 -8 26 -23 40 -33 55 -36 8 -2 22 -10 31 -18 8 -8 19 -14 24 -14 5 0 20
-10 33 -22 14 -13 22 -16 18 -8 -4 8 0 6 9 -5 9 -11 19 -20 23 -19 4 1 16 -4
27 -11 90 -54 127 -75 134 -75 5 0 14 -7 21 -15 7 -9 15 -13 17 -11 3 3 14 -4
26 -15 11 -10 30 -20 41 -21 24 -2 49 -5 56 -8 3 0 28 -4 55 -6 84 -9 110 -12
110 -14 0 -1 22 -3 48 -6 57 -4 122 -12 122 -14 0 -2 99 -11 122 -11 12 0 25
-4 29 -10 4 -8 9 -7 15 2 6 9 12 10 17 4 4 -5 21 -11 37 -12 38 -2 110 -11
110 -13 0 -1 22 -3 48 -4 32 -2 54 2 63 11 8 8 14 11 14 7 0 -3 7 -1 15 6 8 7
15 9 15 4 0 -5 7 0 15 10 8 11 15 17 15 13 0 -3 21 5 46 18 26 14 53 25 60 25
7 0 14 3 16 8 2 6 111 63 128 67 9 2 204 100 220 110 8 5 17 10 20 10 3 0 121
58 262 128 141 70 261 127 266 127 5 0 15 6 21 14 6 8 22 16 34 18 21 4 23 1
23 -39 0 -32 -5 -44 -18 -49 -10 -3 -18 -10 -18 -15 0 -5 -3 -8 -7 -7 -15 3
-63 -14 -63 -23 0 -5 -6 -9 -14 -9 -7 0 -19 -7 -26 -15 -7 -8 -16 -12 -21 -9
-5 3 -22 -4 -38 -15 -15 -11 -31 -18 -35 -14 -3 3 -6 2 -6 -4 0 -10 -20 -19
-59 -28 -8 -2 -17 -8 -20 -13 -5 -7 -29 -20 -51 -27 -13 -4 -66 -30 -70 -35
-3 -3 -52 -27 -110 -55 -58 -27 -113 -56 -124 -65 -10 -8 -19 -14 -20 -12 0 2
-23 -7 -51 -19 -27 -12 -51 -20 -53 -18 -2 2 -8 -4 -13 -14 -6 -9 -14 -15 -20
-12 -5 4 -9 1 -9 -4 0 -6 -3 -10 -7 -10 -15 3 -73 -23 -73 -32 0 -5 -6 -9 -12
-9 -22 -1 -208 -96 -201 -103 3 -4 2 -7 -3 -7 -5 0 -9 -43 -9 -95 0 -52 4 -95
9 -95 5 0 3 -6 -3 -13 -6 -8 -8 -16 -5 -19 3 -3 6 -179 8 -390 1 -211 6 -389
9 -395 4 -7 3 -14 -2 -18 -7 -3 -7 -15 -1 -30 5 -13 6 -26 2 -29 -4 -2 -5 -45
-2 -95 3 -50 1 -91 -3 -91 -5 0 -5 -5 -2 -10 6 -10 8 -59 6 -147 -1 -31 -3
-33 -37 -33 -27 0 -35 4 -31 14 3 8 1 17 -6 20 -7 2 -7 5 -2 5 9 1 12 98 4
118 -2 4 -4 200 -4 435 0 236 -3 428 -7 428 -4 0 -3 11 2 25 6 17 6 25 -1 25
-6 0 -7 5 -4 11 10 14 12 149 3 149 -4 0 -3 11 2 25 5 14 6 25 2 25 -4 0 -6
41 -6 90 2 104 2 104 -86 114 -30 3 -77 9 -105 12 -27 4 -60 8 -72 8 -13 1
-23 3 -23 6 0 3 -21 6 -48 8 -43 2 -87 8 -87 12 0 1 -13 3 -30 5 -16 1 -52 6
-80 10 -27 4 -65 8 -82 8 -18 1 -33 4 -33 8 0 3 -15 5 -32 4 -18 -1 -37 1 -43
4 -13 7 -29 10 -87 14 -25 2 -58 11 -72 20 -14 10 -30 17 -36 17 -5 0 -10 5
-10 11 0 5 -4 7 -10 4 -5 -3 -10 -2 -10 3 0 5 -18 17 -40 27 -22 10 -45 24
-51 31 -6 8 -15 11 -20 8 -5 -3 -9 0 -9 5 0 6 -6 11 -13 11 -7 0 -22 8 -33 18
-11 9 -26 18 -34 20 -8 2 -17 7 -20 10 -5 7 -14 13 -89 54 -20 11 -43 26 -52
34 -9 8 -19 11 -22 7 -4 -3 -7 -1 -7 6 0 7 -5 9 -10 6 -6 -3 -13 1 -16 9 -3 9
-10 14 -14 11 -4 -3 -13 2 -20 10 -7 8 -19 15 -26 15 -8 0 -14 5 -14 10 0 6
-6 10 -14 10 -7 0 -25 9 -40 21 -14 11 -26 18 -26 14 0 -4 -8 1 -17 11 -17 17
-18 -30 -21 -984 l-2 -1002 -235 0 -235 0 21 -36 c11 -20 25 -43 32 -50 29
-33 38 -45 58 -83 12 -23 25 -41 30 -41 5 0 9 -7 9 -15 0 -7 8 -19 18 -24 9
-6 13 -11 9 -11 -4 0 -3 -6 2 -12 47 -57 62 -78 56 -78 -3 0 0 -7 7 -15 26
-28 34 -40 41 -57 3 -10 11 -18 17 -18 5 0 10 -7 10 -15 0 -9 11 -28 25 -43
14 -15 25 -30 25 -34 0 -4 8 -17 18 -28 9 -11 17 -24 17 -28 -1 -4 9 -17 22
-30 13 -13 23 -28 23 -33 0 -6 7 -17 15 -25 11 -12 15 -39 15 -111 l0 -96 -57
-86 c-31 -47 -61 -87 -65 -89 -4 -2 -8 -9 -8 -15 0 -7 -11 -25 -25 -41 -14
-16 -25 -35 -25 -43 0 -8 -4 -12 -9 -9 -5 3 -12 -5 -15 -19 -4 -14 -11 -25
-16 -25 -6 0 -10 -6 -10 -14 0 -8 -3 -16 -7 -18 -5 -1 -30 -37 -58 -78 -27
-41 -80 -119 -117 -172 -37 -54 -63 -100 -59 -103 5 -2 11 -2 15 2 11 11 96
10 96 -1 0 -7 3 -8 8 -1 8 12 82 13 100 2 6 -5 12 -5 12 0 0 9 187 9 196 0 4
-3 15 -2 25 4 18 9 19 -8 21 -558 l3 -568 90 3 c106 3 91 3 188 0 44 -2 81 0
84 5 2 4 10 4 16 0 17 -11 60 -11 75 0 6 5 12 5 12 1 0 -13 173 -11 182 1 5 6
8 6 8 -2 0 -11 42 -9 61 3 4 2 10 0 13 -5 7 -10 25 -9 44 2 6 5 12 4 12 -1 0
-5 18 -8 40 -6 24 1 43 -3 51 -12 6 -8 17 -14 24 -14 8 0 15 -3 17 -7 4 -11
97 -73 107 -73 5 0 11 -4 13 -8 4 -12 95 -72 107 -72 6 0 11 -4 11 -9 0 -8
102 -75 108 -71 2 1 12 -8 21 -19 10 -12 23 -21 30 -21 6 0 11 -4 11 -8 0 -5
12 -15 28 -23 15 -7 50 -31 78 -51 28 -21 56 -38 62 -38 5 0 12 -3 14 -7 3 -8
81 -63 89 -63 2 0 4 72 4 160 0 88 -3 160 -7 160 -4 0 -3 13 2 29 5 19 4 33
-3 40 -8 8 -8 11 0 11 9 0 11 26 3 38 -5 7 -2 60 4 70 4 7 4 12 -1 12 -4 0 -8
29 -8 65 0 36 3 65 8 65 4 0 5 5 1 12 -4 7 -9 152 -10 323 -1 170 -3 373 -4
450 -2 206 -5 190 30 190 17 1 31 -3 31 -7 1 -4 2 -12 3 -17 0 -5 4 -12 7 -16
4 -3 3 -21 -1 -39 -4 -18 -3 -41 2 -50 6 -10 5 -16 -2 -16 -7 0 -7 -6 1 -21 9
-17 8 -20 -2 -14 -8 5 -10 4 -5 -4 10 -16 13 -101 3 -101 -5 0 -5 -5 -1 -12 4
-6 9 -182 10 -389 1 -208 5 -383 9 -388 3 -6 1 -11 -5 -11 -6 0 -8 -4 -5 -10
3 -5 7 -115 8 -245 1 -154 5 -235 12 -235 6 0 21 7 34 17 37 25 111 63 111 56
0 -3 8 3 18 13 9 10 24 20 32 22 8 2 18 8 21 13 3 6 15 11 27 12 11 0 19 4 17
8 -3 3 19 18 48 32 60 31 170 92 207 115 14 9 25 14 25 11 0 -2 14 5 30 17 28
20 121 72 210 118 22 12 42 24 45 27 3 3 30 19 60 34 30 16 67 37 82 47 14 10
33 18 42 18 9 0 16 3 16 8 0 9 72 49 77 42 3 -3 9 3 14 13 6 9 14 15 20 12 5
-4 9 -1 9 4 0 6 5 11 10 11 6 0 28 11 49 24 21 14 42 22 45 19 3 -4 6 -2 6 3
0 6 22 21 50 35 27 13 50 28 50 32 0 5 5 5 10 2 6 -3 10 -2 10 3 0 6 11 13 25
16 14 4 25 10 25 15 0 5 14 12 30 16 17 4 30 10 30 14 0 4 12 13 28 20 15 7
47 24 72 39 25 14 47 25 49 23 2 -1 7 1 10 6 3 4 23 17 44 28 20 11 37 24 37
29 0 5 3 7 6 3 3 -3 27 7 52 21 26 15 64 36 85 47 20 11 37 23 37 27 0 5 9 8
19 8 11 0 21 3 23 8 2 4 21 16 43 27 22 11 42 22 45 25 3 3 30 18 60 34 30 16
67 38 83 48 15 11 27 16 27 13 0 -4 12 3 26 14 15 12 33 21 40 21 8 0 14 5 14
10 0 6 6 10 13 10 7 0 19 6 25 12 7 7 16 13 20 14 16 1 62 28 62 36 0 4 7 8
16 8 8 0 35 14 60 30 24 17 44 27 44 23 0 -4 5 0 11 10 5 9 14 17 19 17 14 0
51 18 95 45 22 14 59 34 83 45 23 11 42 24 42 29 0 5 14 8 30 7 17 -1 30 0 30
4 0 8 63 5 77 -3 6 -4 14 -3 17 1 3 5 18 7 33 5 35 -5 41 -5 76 0 15 2 30 0
33 -5 3 -5 11 -5 17 0 7 4 23 7 37 5 35 -5 41 -5 73 0 15 2 29 1 32 -3 5 -8
35 -7 50 1 6 3 33 4 60 2 68 -4 91 -4 158 0 36 2 57 -1 57 -7 0 -7 3 -8 8 -1
7 10 107 11 165 2 15 -2 29 -1 32 3 5 8 103 6 111 -3 3 -3 17 -2 30 3 16 6 24
6 24 -1 0 -6 6 -7 13 -2 18 11 71 10 79 -2 5 -6 8 -6 8 1 0 7 16 10 40 8 38
-3 39 -2 28 22 -6 13 -15 24 -20 24 -5 0 -7 4 -3 9 3 5 1 12 -5 16 -5 3 -26
32 -47 63 -20 31 -40 59 -43 62 -3 3 -11 17 -19 33 -8 15 -18 27 -23 27 -4 0
-8 6 -8 13 0 8 -9 22 -20 32 -11 10 -20 24 -20 32 0 7 -4 13 -10 13 -5 0 -10
7 -10 15 0 8 -4 15 -10 15 -5 0 -10 7 -10 15 0 8 -4 15 -10 15 -5 0 -10 6 -10
14 0 8 -3 16 -8 18 -8 3 -107 151 -104 155 1 2 -10 15 -23 29 -14 15 -25 33
-25 40 0 8 -3 14 -7 14 -5 0 -25 27 -46 59 -41 64 -41 72 6 125 9 11 17 24 17
29 0 4 6 15 13 22 33 38 42 50 44 63 1 8 6 18 10 21 16 10 73 99 73 112 0 7 3
9 7 5 4 -4 14 7 23 23 20 40 172 264 185 273 7 5 7 8 0 8 -5 0 -2 5 8 11 9 5
17 17 17 24 0 8 4 15 9 15 5 0 13 9 16 20 4 12 16 30 28 40 11 11 17 20 13 20
-4 0 0 8 10 18 17 16 0 17 -360 20 -330 2 -377 4 -372 17 3 8 1 15 -4 15 -5 0
-5 12 -1 28 5 15 4 37 0 50 -5 13 -5 21 -1 18 4 -2 7 34 7 80 0 46 -3 84 -7
84 -4 0 -5 7 -1 16 8 22 10 204 1 204 -4 0 -3 12 1 28 5 15 4 37 0 50 -5 13
-5 21 -1 18 4 -2 7 34 7 80 0 46 -4 84 -8 84 -5 0 -5 5 -1 11 9 16 11 149 2
149 -4 0 -5 7 -1 16 8 22 10 204 1 204 -4 0 -3 12 1 28 5 15 4 37 0 50 -5 13
-5 21 -1 18 4 -2 7 34 7 80 0 46 -3 84 -7 84 -4 0 -5 7 -1 16 8 22 10 204 1
204 -4 0 -3 12 1 28 5 15 4 37 0 50 -5 13 -5 21 -1 18 4 -2 7 34 7 80 0 46 -3
84 -7 84 -4 0 -5 7 -1 16 8 22 10 204 1 204 -4 0 -3 12 1 28 5 15 4 37 0 50
-5 13 -5 21 -1 18 4 -2 7 34 7 80 0 46 -3 84 -7 84 -4 0 -5 7 -1 16 8 22 10
204 1 204 -4 0 -3 12 1 28 5 15 4 37 0 50 -5 13 -5 21 -1 18 4 -2 7 34 7 80 0
46 -3 84 -7 84 -4 0 -5 7 -1 16 8 22 10 204 1 204 -4 0 -3 12 1 28 4 15 4 38
0 52 -4 14 -7 19 -8 11 -1 -7 -7 -11 -16 -7 -8 3 -15 2 -15 -2 0 -4 -25 -19
-55 -32 -30 -13 -55 -29 -55 -34 0 -5 -3 -6 -7 -3 -3 4 -17 0 -30 -8 -13 -9
-23 -12 -23 -8 0 5 -4 4 -8 -2 -12 -16 -69 -45 -76 -38 -3 3 -6 1 -6 -6 0 -7
-4 -10 -8 -7 -5 3 -19 -4 -30 -15 -12 -11 -22 -17 -22 -13 0 3 -7 1 -15 -6 -8
-7 -15 -10 -15 -6 0 3 -18 -5 -39 -18 -21 -14 -42 -22 -45 -19 -3 4 -6 1 -6
-5 0 -6 -18 -17 -40 -23 -22 -7 -40 -15 -40 -19 0 -7 -30 -18 -47 -18 -3 0 -9
-4 -12 -9 -5 -7 -218 -116 -231 -118 -3 -1 -29 -13 -57 -28 -29 -15 -56 -28
-60 -28 -5 0 -16 -8 -25 -16 -10 -9 -18 -13 -18 -9 0 4 -13 -2 -29 -13 -16
-12 -34 -21 -39 -21 -5 0 -30 -11 -53 -25 -24 -14 -48 -25 -54 -25 -12 0 -13
989 -1 1008 4 7 4 12 -1 12 -4 0 -9 21 -11 48 -2 49 -9 113 -12 122 -1 3 -3
10 -4 15 -12 51 -20 76 -27 81 -5 3 -9 12 -9 20 0 8 -10 29 -22 47 -21 29 -31
39 -76 78 -39 33 -140 42 -222 20 -48 -13 -193 -81 -198 -93 -2 -5 -10 -8 -18
-8 -8 0 -14 -4 -14 -10 0 -5 -5 -10 -10 -10 -6 0 -16 -5 -23 -10 -7 -6 -23
-20 -37 -31 -92 -75 -219 -221 -212 -241 1 -5 -2 -8 -7 -8 -10 0 -101 -178
-101 -198 0 -6 -10 -14 -22 -18 -13 -4 -25 -9 -28 -13 -5 -5 -78 -43 -90 -46
-3 0 -30 -14 -60 -30 -30 -16 -57 -30 -60 -30 -16 -4 -86 -42 -92 -50 -4 -5
-8 -7 -8 -3 0 4 -20 -4 -44 -17 -25 -14 -47 -22 -49 -17 -3 4 -5 198 -6 432
-1 373 -4 485 -11 485 -1 0 -4 14 -6 30 -8 53 -28 115 -38 115 -5 0 -6 3 -3 7
7 7 -28 69 -52 93 -30 29 -79 60 -95 60 -9 0 -16 5 -16 10 0 6 -27 10 -60 10
-39 0 -60 -4 -60 -12z m89 -187 c10 -12 23 -21 30 -21 6 0 11 -5 11 -12 0 -6
6 -19 13 -27 8 -9 19 -29 24 -46 6 -16 14 -39 18 -50 7 -18 14 -56 17 -92 1
-7 4 -13 8 -13 8 0 9 -30 10 -464 l2 -379 -24 -19 c-12 -9 -28 -18 -35 -18 -6
0 -19 -7 -27 -16 -9 -8 -16 -13 -16 -10 0 8 -103 -45 -111 -57 -3 -5 -8 -8
-10 -7 -9 4 -59 -13 -59 -19 0 -6 -58 -32 -63 -28 -1 1 -15 -7 -32 -19 -16
-11 -60 -34 -97 -50 -38 -15 -68 -32 -68 -36 0 -5 -8 -8 -19 -8 -10 0 -24 -7
-31 -15 -7 -8 -21 -15 -31 -15 -11 0 -19 -4 -19 -10 0 -5 -3 -9 -7 -8 -5 1
-44 -15 -88 -37 -44 -21 -82 -39 -85 -39 -2 -1 -3 58 -1 129 1 72 4 227 5 346
1 118 6 221 11 229 5 7 4 11 -1 8 -5 -4 -9 7 -9 23 0 16 2 29 5 29 3 0 6 12 7
28 4 38 8 55 15 67 7 12 20 72 18 81 -1 4 3 10 9 13 6 4 12 16 15 26 2 11 7
30 11 42 4 12 6 25 5 29 -1 4 4 10 12 15 7 5 13 12 14 16 3 23 27 73 36 73 5
0 7 4 4 8 -3 5 3 18 14 29 10 12 16 24 13 27 -4 3 -1 6 5 6 7 0 11 4 10 8 -5
16 150 192 168 192 4 0 14 8 23 18 9 9 27 23 41 30 14 7 39 20 55 30 73 45
171 51 204 13z m1431 -375 c33 -11 71 -55 103 -116 20 -39 23 -50 11 -54 -8
-3 -14 -1 -14 4 0 6 -6 10 -14 10 -7 0 -26 10 -42 22 -35 28 -71 33 -93 15 -9
-8 -33 -20 -53 -28 -21 -7 -38 -17 -38 -21 0 -4 -3 -7 -7 -6 -19 5 -222 -104
-237 -127 -9 -14 -13 -25 -9 -25 5 0 3 -4 -3 -8 -16 -11 -73 -119 -67 -126 4
-3 1 -6 -5 -6 -7 0 -11 -3 -11 -7 1 -8 0 -12 -6 -30 -13 -36 -16 -49 -15 -57
1 -5 -2 -12 -7 -15 -16 -12 -47 -157 -49 -228 -2 -40 -4 -76 -6 -80 -2 -4 -3
-99 -3 -210 0 -112 -4 -203 -8 -203 -5 0 -5 -5 -1 -12 4 -7 6 -33 5 -58 -6
-83 -8 -235 -3 -248 3 -9 15 -6 46 10 22 13 44 27 47 32 4 5 11 6 17 2 6 -3
12 -2 14 2 3 9 134 73 144 71 4 0 10 4 14 11 4 6 13 12 21 14 8 1 48 20 89 41
41 22 77 39 80 40 3 1 30 14 60 30 30 16 57 30 60 31 3 1 15 5 28 9 12 4 22
12 22 18 0 6 3 8 6 4 3 -3 21 3 40 14 19 10 36 19 38 19 2 0 0 -70 -3 -92 -1
-5 -5 -7 -9 -5 -10 3 -85 -35 -94 -48 -4 -5 -8 -7 -8 -3 0 4 -29 -8 -65 -27
-36 -20 -65 -32 -65 -28 0 5 -4 3 -8 -3 -4 -6 -70 -42 -147 -79 -77 -38 -142
-72 -143 -77 -2 -4 -7 -6 -12 -3 -5 3 -16 -2 -24 -11 -9 -8 -16 -13 -16 -10 0
8 -143 -66 -152 -79 -4 -5 -8 -6 -8 -2 0 5 -16 0 -36 -12 -19 -12 -32 -17 -29
-11 3 5 2 10 -3 10 -8 0 -7 47 1 113 3 15 0 27 -5 27 -5 0 -6 5 -2 11 3 6 8
113 10 238 8 472 13 617 22 648 6 17 8 34 4 37 -3 3 -1 6 5 6 6 0 10 6 10 13
-2 23 25 107 35 107 5 0 7 4 4 8 -3 5 2 21 9 36 8 16 12 32 9 37 -3 5 -1 9 4
9 4 0 18 21 30 48 26 57 54 106 65 110 4 2 7 10 7 18 0 7 9 19 20 26 11 7 20
18 20 24 0 12 109 117 154 149 15 11 34 25 41 32 7 7 15 9 19 6 3 -3 8 2 12
11 3 9 9 14 13 12 3 -2 22 4 41 13 37 18 99 21 140 7z"/>
<path d="M6685 8310 c-3 -6 -4 -10 -1 -10 2 0 1 -14 -4 -30 -5 -17 -5 -28 0
-25 4 3 7 -6 6 -20 0 -14 -5 -25 -10 -25 -5 0 -4 -6 3 -13 8 -10 7 -17 -1 -25
-7 -7 -8 -12 -2 -12 8 0 9 -27 4 -120 -1 -14 1 -40 3 -58 2 -18 0 -35 -4 -38
-5 -3 -6 -11 -3 -18 9 -23 11 -71 3 -92 -4 -11 -3 -27 1 -34 5 -9 4 -20 -2
-27 -6 -7 -6 -13 -1 -13 5 0 8 -21 6 -47 -5 -55 -5 -59 0 -93 2 -14 0 -37 -4
-51 -4 -14 -3 -33 2 -42 8 -14 14 -14 37 -4 15 6 29 14 32 18 4 5 87 46 110
54 24 9 77 35 83 42 5 4 12 8 15 9 8 1 115 53 152 74 14 8 27 15 30 15 15 4
206 100 210 106 3 4 14 9 25 11 11 1 26 9 33 16 8 7 18 10 23 7 5 -4 9 -2 9 3
0 9 42 28 64 30 5 0 12 5 15 10 3 6 13 12 21 14 8 2 21 9 28 16 8 7 18 10 23
7 5 -4 9 -2 9 3 0 6 11 13 25 16 14 4 25 10 25 15 0 9 -107 36 -127 32 -7 -1
-13 2 -13 7 0 4 -16 9 -37 10 -20 2 -41 6 -47 10 -6 3 -19 8 -28 9 -44 7 -100
20 -141 33 -10 4 -101 25 -147 35 -8 2 -15 4 -15 5 0 1 -9 3 -20 5 -72 13
-127 31 -141 47 -10 10 -21 18 -27 18 -5 0 -21 9 -37 20 -15 11 -30 17 -34 13
-3 -3 -6 -1 -6 5 0 6 -17 19 -37 29 -21 9 -40 20 -43 23 -16 18 -60 39 -65 30z"/>
</g>
</svg>
